<svg id="Layer_1" enable-background="new 0 0 53 53" height="512" viewBox="0 0 53 53" width="512" xmlns="http://www.w3.org/2000/svg"><g><g><g><path d="m31.6494427 51.2578125c-10.3125 0-21.6860352-1.0078125-23.8984375-1.4921875-5.4047852-1.1826172-4.9135742-12.5009766-4.394043-24.4838867.0932617-2.1464844.1860352-4.2915039.2431641-6.3637695.347168-12.6665039 1.5878909-14.0483398 6.7451172-14.456543 4.2255859-.3330078 28.6132813.4960938 30.1391602.5483398.5473633-.0390625 5.3457031-.3051758 7.6704102 1.7583008.809082.7182617 1.2412109 1.6269531 1.2851563 2.7021484.1611328 3.9506836 1.0649414 34.371582-.0244141 38.5073242-.6635763 2.5205079-8.8154317 3.2802735-17.7661134 3.2802735zm-17.7607432-45.3759766c-1.5566406 0-2.7607422.0219727-3.425293.074707-3.7539057.2973634-5.0185541.397461-5.3642573 13.0024415-.0566406 2.0800781-.1499023 4.2333984-.2436523 6.3876953-.4477539 10.3310547-.9555667 22.0410156 3.2158198 22.9541016 7.6044922 1.6611328 39.0742188 2.4052734 39.894043-.7060547.9106445-3.4580078.2895508-30.3686523-.0244141-38.0634766-.0268555-.6611328-.2827148-1.1982422-.7822266-1.6411133-1.612793-1.4321289-5.3144531-1.4848633-6.6010742-1.3818359-.0288086.0019531-.0556641.003418-.0844765.0019531-.2167939-.0073242-18.3413038-.628418-26.5844688-.628418z"/></g></g><g><g><path d="m48.9111595 16.5766602h-44.4423814c-.4140625 0-.7500002-.3359375-.7500002-.75s.3359377-.75.7500002-.75h44.4423828c.4140625 0 .75.3359375.75.75s-.3359389.75-.7500014.75z"/></g></g><g><g><path d="m11.9883089 13.9594727c-.8779297 0-1.7490234-.3417969-2.3598633-.9760742-.9799805-1.0175781-1.1616211-2.3920898-.4746094-3.5878906.7709961-1.3413086 2.3393555-2.027832 3.8168945-1.6665039 1.296875.3164063 2.1713867 1.3364258 2.2817383 2.6616211.1181641 1.4199219-.6767578 2.7490234-1.9780273 3.3076172-.4096679.1762694-.8486328.2612304-1.2861328.2612304zm.190918-4.8261719c-.753418 0-1.4121094.4658203-1.7246094 1.0097656-.206543.359375-.4482422 1.0708008.2539063 1.7993164.4838867.503418 1.3154297.6606445 1.9736328.3779297.8178711-.3510742 1.1289063-1.159668 1.0751953-1.8051758-.0268555-.3222656-.1918945-1.097168-1.1420898-1.3291016-.147461-.0356445-.2934571-.0527343-.4360352-.0527343z"/></g></g><g><g><path d="m12.0024691 9.1430664c-.4140625 0-.75-.3359375-.75-.75v-5.9008789c0-.4140625.3359375-.75.75-.75s.75.3359375.75.75v5.9008789c0 .4140625-.3359375.75-.75.75z"/></g></g><g><g><path d="m21.6401653 13.9594727c-.8779297 0-1.7490234-.3417969-2.3598633-.9760742-.9799805-1.0175781-1.1616211-2.3920898-.4746094-3.5878906.7709961-1.3413086 2.3408203-2.027832 3.8164063-1.6665039 1.296875.3164063 2.1713867 1.3359375 2.2817383 2.6611328.1186523 1.4199219-.6762695 2.7495117-1.9775391 3.3081055-.4091796.1762694-.8486328.2612304-1.2861328.2612304zm.1904297-4.8261719c-.7529297 0-1.4116211.4658203-1.7241211 1.0097656-.206543.359375-.4482422 1.0708008.2539063 1.7993164.4838867.503418 1.3154297.6606445 1.9736328.3779297.8173828-.3510742 1.1289063-1.159668 1.0751953-1.8051758-.0268555-.3222656-.1918945-1.097168-1.1425781-1.3291016-.147461-.0356445-.2934609-.0527343-.4360352-.0527343z"/></g></g><g><g><path d="m21.6543255 9.1430664c-.4140625 0-.75-.3359375-.75-.75v-5.9008789c0-.4140625.3359375-.75.75-.75s.75.3359375.75.75v5.9008789c0 .4140625-.3359375.75-.75.75z"/></g></g><g><g><path d="m31.2920208 13.9594727c-.8779297 0-1.7490234-.3417969-2.3598633-.9760742-.9799805-1.0170898-1.1621094-2.3920898-.4746094-3.5874023.7700195-1.3417969 2.3374023-2.0283203 3.8164043-1.6669922 1.296875.3164063 2.1713867 1.3359375 2.2817383 2.6611328.1186523 1.4199219-.6762695 2.7495117-1.9775391 3.3081055-.4091796.1762694-.8486308.2612304-1.2861308.2612304zm.1904297-4.8261719c-.7529297 0-1.4121094.4658203-1.7246094 1.0097656-.206543.359375-.4477539 1.0708008.2543945 1.7993164.4838867.503418 1.3154297.6606445 1.9736328.3779297.8173809-.3510742 1.1289043-1.159668 1.0751934-1.8051758-.0268555-.3222656-.1918945-1.097168-1.1425762-1.3291016-.1474609-.0356445-.293457-.0527343-.4360351-.0527343z"/></g></g><g><g><path d="m31.3056927 9.1430664c-.4140625 0-.75-.3359375-.75-.75v-5.9008789c0-.4140625.3359375-.75.75-.75s.7499981.3359375.7499981.75v5.9008789c0 .4140625-.3359356.75-.7499981.75z"/></g></g><g><g><path d="m40.9433861 13.9594727c-.8774414 0-1.7485352-.3417969-2.3598633-.9760742-.9799805-1.0175781-1.1616211-2.3920898-.4746094-3.5878906.7709961-1.3413086 2.3369141-2.027832 3.8168945-1.6665039 1.296875.3164063 2.1713867 1.3364258 2.2817383 2.6616211.1181641 1.4199219-.6767578 2.7490234-1.9780273 3.3076172-.4091797.1762694-.8486328.2612304-1.2861328.2612304zm-1.2797852-2.0170899c.484375.5019531 1.3144531.6606445 1.9736328.3779297.8178711-.3510742 1.1289063-1.159668 1.0751953-1.8051758-.0268555-.3222656-.1918945-1.097168-1.1420898-1.3291016-.9267578-.2250977-1.7890625.3105469-2.1606445.9570313-.206543.359375-.4482422 1.0703125.2539062 1.7993164z"/></g></g><g><g><path d="m40.9575462 9.1430664c-.4140625 0-.75-.3359375-.75-.75v-5.9008789c0-.4140625.3359375-.75.75-.75s.75.3359375.75.75v5.9008789c0 .4140625-.3359375.75-.75.75z"/></g></g><g><g><path d="m20.4258099 42.8222656c-.1333008 0-.2666016-.0351563-.3862305-.1074219-.2836914-.1699219-.4223633-.5068359-.3408203-.8271484.3071289-1.2080078.5673828-2.4077148.8276367-3.6069336.222168-1.0244141.4448242-2.0483398.6953125-3.078125-2.5385742-1.3393555-4.8676758-3.0356445-6.7646494-4.9306641-.2163086-.2158203-.2797852-.5415039-.1611328-.8227539.1191406-.28125.4438477-.4672852.7021484-.4580078 1.6518564.0327148 3.4750948-.1494141 5.2441416-.3178711.7871094-.0751953 1.5644531-.1489258 2.3144531-.2050781l2.7519531-5.6787109c.1201172-.2485352.3676758-.4106445.6435547-.4223633.2739258-.0087891.5356445.1298828.6767578.3671875.5546875.9370117 1.1054688 1.8442383 1.65625 2.7514648.5014648.8261719 1.0029297 1.6523438 1.5068359 2.5 1.03125.159668 2.0307617.2954102 3.0302715.4316406 1.1225586.152832 2.2446289.3056641 3.4111328.4912109.269043.0429688.4936523.2285156.5864258.484375.0932617.2558594.0405273.5424805-.1381836.7480469-1.6835938 1.9389648-3.2939453 3.4389648-4.9096661 4.5717773.373045 2.2578125.8315411 4.6230469 1.7211895 6.8457031.1206055.3007813.0336914.6464844-.2158203.8544922-.2485352.2080078-.6044922.2324219-.8793945.0585938-1.9960918-1.2529297-4.0371075-2.5341797-5.8525372-4.0209961-2.1967773 1.3740234-4.0375977 2.7431641-5.6152344 4.1762695-.1416014.1289064-.3222654.1953126-.5043943.1953126zm6.1855468-6.0439453c.1743164 0 .3481445.0610352.4873047.1796875 1.3134766 1.1225586 2.793457 2.1362305 4.2939453 3.1020508-.5517578-1.8710938-.8852539-3.7651367-1.1782227-5.578125-.0473633-.2905273.0805664-.5820313.3256836-.7446289 1.3442383-.8911133 2.6889629-2.0600586 4.0864239-3.5546875-.6748047-.0976563-1.3408203-.1879883-2.0063477-.2788086-1.1225567-.152832-2.244627-.3056641-3.4111309-.4912109-.2202148-.0351563-.4135742-.1665039-.5273438-.3588867-.5620117-.9501953-1.1206055-1.8696289-1.6787109-2.7890625-.3164063-.5214844-.6333008-1.043457-.9506836-1.5703125l-2.3354492 4.8188477c-.1176758.2426758-.3564453.4038086-.6259766.4213867-.8681641.0566406-1.7802734.1435547-2.706543.2319336-1.1679688.1113281-2.3613281.2250977-3.5253906.284668 1.6459961 1.4106445 3.543457 2.668457 5.5703125 3.6860352.3149414.1582031.4770508.5136719.390625.8554688-.3071289 1.2075195-.5673828 2.4072266-.8276367 3.6064453-.1030273.4760742-.206543.9521484-.3125 1.4287109 1.3413086-1.0629883 2.8417969-2.1000977 4.5400391-3.1391602.1210938-.0742189.2563477-.1103517.3916016-.1103517zm-3.5693359-7.5922851h.0097656z"/></g></g></g></svg>