<svg id="Layer_2" height="512" viewBox="0 0 30 30" width="512" xmlns="http://www.w3.org/2000/svg" data-name="Layer 2"><g fill="rgb(0,0,0)"><path d="m22.39 19.5h-10.25a3 3 0 0 1 -2.94-2.41l-2.02-10.09h-3.18a1 1 0 0 1 0-2h4a1 1 0 0 1 1 .8l2.16 10.9a1 1 0 0 0 1 .8h10.23a1 1 0 0 0 1-.79l1.61-7.5a1 1 0 0 0 -1-1.21h-1a1 1 0 0 1 0-2h1a3 3 0 0 1 3 3.64l-1.63 7.5a3 3 0 0 1 -2.98 2.36z"/><path d="m13 27a3 3 0 1 1 3-3 3 3 0 0 1 -3 3zm0-4a1 1 0 1 0 1 1 1 1 0 0 0 -1-1z"/><path d="m22 27a3 3 0 1 1 3-3 3 3 0 0 1 -3 3zm0-4a1 1 0 1 0 1 1 1 1 0 0 0 -1-1z"/><path d="m20 12h-6a1 1 0 0 1 0-2h6a1 1 0 0 1 0 2z"/><path d="m17 15a1 1 0 0 1 -1-1v-6a1 1 0 0 1 2 0v6a1 1 0 0 1 -1 1z"/></g></svg>