<svg clip-rule="evenodd" fill-rule="evenodd" height="512" stroke-linejoin="round" stroke-miterlimit="2" viewBox="0 0 24 24" width="512" xmlns="http://www.w3.org/2000/svg"><g id="Icon"><path d="m11.087 2.083c.587-.587 1.401-.888 2.229-.825l7.217.556c.883.068 1.585.77 1.653 1.653l.556 7.217c.063.828-.238 1.642-.825 2.229l-9.004 9.004c-1.11 1.111-2.911 1.111-4.021 0l-6.809-6.809c-1.111-1.11-1.111-2.911 0-4.021zm5.511 3.569c-.966 0-1.75.784-1.75 1.75s.784 1.75 1.75 1.75 1.75-.784 1.75-1.75-.784-1.75-1.75-1.75z"/></g></svg>