<?xml version="1.0" encoding="UTF-8"?>
<svg xmlns="http://www.w3.org/2000/svg" id="Outline" viewBox="0 0 512 512" width="512" height="512"><path d="M495.949,447.1l-40-352h0A7.988,7.988,0,0,0,448,88H431.46C428.933,69.53,417.778,56,404,56s-24.933,13.53-27.46,32H359.46C356.933,69.53,345.778,56,332,56s-24.933,13.53-27.46,32H287.46C284.933,69.53,273.778,56,260,56s-24.933,13.53-27.46,32H215.46C212.933,69.53,201.778,56,188,56s-24.933,13.53-27.46,32H143.46C140.933,69.53,129.778,56,116,56S91.067,69.53,88.54,88H64a8,8,0,0,0-7.949,7.1l-40,352A8,8,0,0,0,24,456H408a7.969,7.969,0,0,0,2.97-.574v0L448,440.616l37.029,14.812a8,8,0,0,0,10.92-8.331ZM404,72c4.5,0,9.409,6.467,11.248,16h-22.5C394.591,78.467,399.505,72,404,72Zm-72,0c4.5,0,9.409,6.467,11.248,16h-22.5C322.591,78.467,327.505,72,332,72Zm-72,0c4.5,0,9.409,6.467,11.248,16h-22.5C250.591,78.467,255.505,72,260,72Zm-72,0c4.5,0,9.409,6.467,11.248,16h-22.5C178.591,78.467,183.505,72,188,72Zm-72,0c4.5,0,9.409,6.467,11.248,16h-22.5C106.591,78.467,111.505,72,116,72ZM71.143,104h17.4c2.527,18.47,13.682,32,27.46,32a8,8,0,0,0,0-16c-4.5,0-9.409-6.467-11.248-16H160.54c2.527,18.47,13.682,32,27.46,32a8,8,0,0,0,0-16c-4.5,0-9.409-6.467-11.248-16H232.54c2.527,18.47,13.682,32,27.46,32a8,8,0,0,0,0-16c-4.5,0-9.409-6.467-11.248-16H304.54c2.527,18.47,13.682,32,27.46,32a8,8,0,0,0,0-16c-4.5,0-9.409-6.467-11.248-16H376.54c2.527,18.47,13.682,32,27.46,32a8,8,0,0,0,0-16c-4.5,0-9.409-6.467-11.248-16H439.04L406.312,392H304V375.854c40.491-1.511,57.29-14.259,61-17.582,22.019-15.28,21.161-50.532,19.614-65.838a31.99,31.99,0,1,0-52.765-5.2c-7.226,7.62-10.046,17.967-11.147,24.988-5.4.3-11.6.918-18.554,1.84C310.73,299.15,312,280.59,312,264a80,80,0,0,0-160,0c0,16.59,1.27,35.15,9.85,50.06-6.954-.922-13.151-1.537-18.554-1.84-1.1-7.021-3.921-17.368-11.147-24.988a32.007,32.007,0,1,0-52.765,5.2C77.837,307.74,76.979,342.992,99,358.272c3.712,3.323,20.511,16.071,61,17.582V392H38.415ZM168,360c-22.67,0-37.4-3.771-45.762-6.935s-12.159-6.358-12.629-6.773a5.848,5.848,0,0,0-1.171-.948c-17.861-11.91-13.324-50.293-12.748-54.631a8,8,0,0,0-2.519-6.945A15.8,15.8,0,0,1,88,272a16,16,0,1,1,27.5,11.111A8,8,0,0,0,117.22,295.6c8.745,5.083,10.747,19.358,10.78,24.4a8,8,0,0,0,8,8c10.424,0,25.7,1.807,45.384,5.36C193.89,340.5,210.636,344,232,344s38.11-3.5,50.616-10.64C302.3,329.807,317.576,328,328,328a8.023,8.023,0,0,0,8-7.974c.033-5.071,2.035-19.346,10.78-24.429a8,8,0,0,0,1.722-12.486,16,16,0,1,1,22.327.657,8,8,0,0,0-2.519,6.945c.576,4.338,5.113,42.721-12.748,54.631a8,8,0,0,0-1.219,1C354.207,346.479,339.471,360,296,360a8,8,0,0,0-8,8v24H176V368A8,8,0,0,0,168,360Zm64-96a24,24,0,0,0,0-48,8,8,0,0,0,0,16,8,8,0,0,1,0,16,24,24,0,0,1,0-48,64.072,64.072,0,0,1,64,64c0,16.1-1.229,34.162-10.346,46.041C276.379,322.125,258.829,328,232,328s-44.379-5.875-53.654-17.959C173.23,303.375,168,292.692,168,264a63.941,63.941,0,0,1,25.59-51.157A39.992,39.992,0,0,0,232,264ZM32.96,440,36.6,408h367.9l-3.637,32Zm418.011-15.428a8.008,8.008,0,0,0-5.942,0L417.461,435.6,448,166.852,478.54,435.6Z"/><circle cx="200" cy="288" r="8"/><circle cx="264" cy="288" r="8"/><path d="M104,184h32a8,8,0,0,0,0-16H104a8,8,0,0,0,0,16Z"/><path d="M360,184h32a8,8,0,0,0,0-16H360a8,8,0,0,0,0,16Z"/></svg>
