<svg id="Layer_1" enable-background="new 0 0 68 68" height="512" viewBox="0 0 68 68" width="512" xmlns="http://www.w3.org/2000/svg"><g id="_x34_8"><path d="m13.8 42.1c0 8.3 7.9 15.1 17.7 15.1 9.7 0 17.7-6.8 17.7-15.1s-8-15.1-17.7-15.1-17.7 6.8-17.7 15.1zm33.3-3.6h-.7c-.4 0-.8.3-.8.8s.4.7.8.7h1.1c.1.7.2 1.4.2 2.1 0 2.1-.6 4.2-1.7 6l-.2-.2c-.3-.3-.8-.3-1.1 0s-.3.8 0 1.1l.4.4c-1.7 2.2-4.1 4-7 5.1l-.3-.7c-.2-.4-.6-.5-1-.3s-.5.6-.3 1l.2.5c-1.6.5-3.4.7-5.2.7-1.6 0-3.1-.2-4.5-.6l.3-.8c.2-.4 0-.8-.4-1s-.8 0-1 .4l-.4 1c-3.1-1.1-5.8-2.9-7.6-5.3l.7-.7c.3-.3.3-.8 0-1.1s-.8-.3-1.1 0l-.5.5c-1.1-1.8-1.7-3.9-1.7-6.1 0-.7.1-1.4.2-2.1h.2 1c.4 0 .8-.3.8-.8s-.3-.8-.8-.8h-.9c.8-2.6 2.5-4.9 4.8-6.6v.1l.7.7c.3.3.8.3 1.1 0s.3-.8 0-1.1l-.4-.3c2.5-1.5 5.6-2.5 8.9-2.6v.7c0 .4.3.8.8.8.4 0 .7-.3.7-.8v-.7c3.1.1 6 1 8.4 2.4l-.9.9c-.3.3-.3.8 0 1.1s.8.3 1.1 0l.9-.9c.1-.1.1-.1.1-.2 2.4 1.7 4.2 4 5.1 6.7z"/><path d="m33.4 40.9-1.1-6.2c-.1-.4-.4-.6-.7-.6-.4 0-.7.3-.7.6l-.9 6c-1.2.5-2 1.5-2 2.7 0 1.7 1.6 3 3.6 3s3.6-1.3 3.6-3c-.1-1.1-.8-2-1.8-2.5zm-1.7-1.3.1.8c-.1 0-.2 0-.3 0zm-.2 5.3c-1.1 0-2.1-.7-2.1-1.5s.9-1.5 2.1-1.5c1.1 0 2.1.7 2.1 1.5s-.9 1.5-2.1 1.5z"/><path d="m34.8 16.8c7.2-.3 14.5-1.9 20.2-6.5.7-.6 2.5-2.5 2.1-3.5-.2-.5-.7-.8-1.2-.8-16.4 1.3-32.9 1.6-49 1-.5 0-1 .3-1.2.8v.1c-.2 0-.3.3-.2.7 0 1.2 1.1 2.2 2 2.8 5.9 3.9 13.4 4.9 20.5 5.3.9 1.5.5 3.9-.3 5.5-.3.1-.5.1-.8.2-9.4 1.9-16.7 8.1-19.8 19.5-1.5 5.4-1.8 11.1-2.2 16.8-.1 1.6-.1 3.3 1 4.4.9.9 2.3 1.1 3.7 1 .1.6.3 1.3.8 1.7 1.9 1.9 4.8.4 4.7-2 10.1 0 21.1-.2 33.3-.5.2 1.4 1.4 2.7 2.9 2.7 1.4 0 2.7-1.3 2.8-2.9.7 0 1.3-.2 1.9-.8.6-.7.9-1.6.8-2.4l-1.6-14.8c-.4-3.2-.7-6.6-2-9.7-2.8-7-9.5-12.1-17.3-13.3-.5-.1-1-.1-1.4-.2-.3-1.9-.2-3.6.3-5.1zm20.6-9.2c-6.5 6.2-16.7 7.1-25.7 7-7.8-.1-16.4-.9-22.3-6.1 15.8.6 31.9.3 48-.9zm-44 57.2c-.2-.2-.4-.5-.4-.8.9-.1 1.7-.1 2.6-.2 0 1.1-1.2 2-2.2 1zm39.9-.2c-.6 0-1.2-.6-1.3-1.3.9 0 1.8 0 2.6-.1-.1.8-.7 1.4-1.3 1.4zm.4-28.6c1.2 2.9 1.6 6.2 1.9 9.3l1.6 14.8c.1.6-.5 1.6-1 1.6-17.2.5-32.1.6-45.4.6-.3 0-.5-.1-.7-.3s-.3-.5-.3-.7c0-5.7.2-11.8 1.5-17.7.8-3.7 2.5-9 6.1-13.2 3.7-4.4 10.1-7.1 16.6-7.1 1.2 0 2.4.1 3.6.3 7.3 1.2 13.5 5.9 16.1 12.4zm-21-14.1c.3-1.7.3-3.5-.2-5.2h2.8c-.4 1.5-.6 3.2-.4 5.1-.8.1-1.5.1-2.2.1z"/><path d="m58 4.3.6-2.1c.1-.4-.1-.8-.5-.9s-.8.1-.9.5l-.6 2.1c-.1.4.1.8.5.9.3.2.7-.1.9-.5z"/><path d="m59.6 7.1 2.2-1.4c.3-.2.5-.7.2-1-.2-.3-.7-.5-1-.2l-2.2 1.4c-.3.2-.5.7-.2 1 .2.3.6.4 1 .2z"/><path d="m59.6 10.5 2.5.9c.4.1.8-.1 1-.5.1-.4-.1-.8-.5-1l-2.5-.9c-.4-.1-.8.1-1 .5-.1.4.1.8.5 1z"/></g></svg>