<svg id="Icons" enable-background="new 0 0 100 100" height="512" viewBox="0 0 100 100" width="512" xmlns="http://www.w3.org/2000/svg"><path id="Weight" d="m80 5h-60c-8.271 0-15 6.729-15 15v60c0 8.271 6.729 15 15 15h60c8.271 0 15-6.729 15-15v-60c0-8.271-6.729-15-15-15zm9 75c0 4.963-4.037 9-9 9h-27v-21c0-1.657-1.342-3-3-3s-3 1.343-3 3v21h-27c-4.963 0-9-4.037-9-9v-60c0-4.963 4.037-9 9-9h60c4.963 0 9 4.037 9 9zm-10.122-50.339c-7.758-6.23-18.012-9.661-28.878-9.661s-21.12 3.431-28.878 9.661c-1.213.973-1.479 2.71-.618 4.003l12 18c.498.749 1.307 1.233 2.2 1.321.914.1 1.784-.229 2.417-.864 3.302-3.302 7.875-5.121 12.879-5.121s9.577 1.819 12.879 5.121c.565.566 1.33.879 2.121.879.097 0 .196-.004.296-.015.894-.088 1.702-.573 2.2-1.321l12-18c.861-1.293.595-3.031-.618-4.003zm-14.505 15.871c-3.282-2.38-7.186-3.823-11.373-4.307v-6.225c0-1.657-1.342-3-3-3s-3 1.343-3 3v6.225c-4.187.484-8.091 1.927-11.373 4.307l-8.546-12.82c6.39-4.345 14.423-6.712 22.919-6.712s16.529 2.367 22.919 6.712z"/></svg>