<svg id="Vrstva_1" data-name="Vrstva 1" xmlns="http://www.w3.org/2000/svg" width="109.58" height="48.23" viewBox="0 0 109.58 48.23"><g id="Vrstva_3" data-name="Vrstva 3"><path d="M122.86,30.25a25.63,25.63,0,0,0-.49-3.39,17.9,17.9,0,0,0-1-3,12.62,12.62,0,0,0-1.48-2.58,7.89,7.89,0,0,0-.76-.87,11.19,11.19,0,0,0-1.28-1.11,8.63,8.63,0,0,0-1-.58,15.08,15.08,0,0,0-1.48-.68,14.78,14.78,0,0,0-2.07-.58,23.06,23.06,0,0,0-5.23-.54,19.23,19.23,0,0,0-2.91.34,12.1,12.1,0,0,0-2.31.66A13.62,13.62,0,0,0,99.35,20a3.68,3.68,0,0,1-.49.7,2.74,2.74,0,0,0,.25,2.07l.51.22a5.35,5.35,0,0,0,1.41.33,9.46,9.46,0,0,0,2.49-.07,12.48,12.48,0,0,1,3-.93,17.88,17.88,0,0,1,5.06.08,13.59,13.59,0,0,1,3.33.95,7.8,7.8,0,0,1,1.24.85,6.73,6.73,0,0,1,.77.91,10.83,10.83,0,0,1,.86,1.78,17.5,17.5,0,0,1,.68,3.07,50.93,50.93,0,0,1,.11,6.42,4,4,0,0,0,.19,1.35,1.75,1.75,0,0,0,.32.82c.2.25.53.26.81.36a2.22,2.22,0,0,0,.89.08,2.55,2.55,0,0,0,1.57-.34c.5-.4.61-1.56.63-2.27A51.74,51.74,0,0,0,122.86,30.25Z" transform="translate(-26.76 -1.86)" style="fill:#a6654f"/><path d="M129.68,35.42a24.85,24.85,0,0,1-.56-3.1c-.28-2.74-.34-5.51-.69-8.24a25.24,25.24,0,0,0-.66-3.38,17.3,17.3,0,0,0-1.41-3.63,14.08,14.08,0,0,0-1.18-1.81,11.9,11.9,0,0,0-1.52-1.57A13,13,0,0,0,121,11.86,24,24,0,0,0,114,9.21a24.55,24.55,0,0,0-7.41,0A25.53,25.53,0,0,0,99.75,11,21.6,21.6,0,0,0,94,14.6l-.26.24a3.92,3.92,0,0,1-.13.49c0,.15,0,.27,0,.32,0,.69-.08,1.38.37,1.86.72.78,2.33.79,3.61.52a19.5,19.5,0,0,1,2.65-1.66,22.83,22.83,0,0,1,6.11-1.92,27.43,27.43,0,0,1,3.25-.29,21.09,21.09,0,0,1,3.55.14,21.33,21.33,0,0,1,5.35,1.93A14.07,14.07,0,0,1,121.18,18a9.64,9.64,0,0,1,1.1,1.28,12.68,12.68,0,0,1,1,2,22.76,22.76,0,0,1,.93,4.35c.38,3.72.31,7.53,1.23,11.15.16.64.34,1.61.89,1.79a5.32,5.32,0,0,0,1.82,0c.62,0,1.08.08,1.35-.52A5.55,5.55,0,0,0,129.68,35.42Z" transform="translate(-26.76 -1.86)" style="fill:#f3cb9b"/><path d="M136.15,25.66a42.91,42.91,0,0,0-.75-5.41,30.72,30.72,0,0,0-1.52-4.94,22.3,22.3,0,0,0-2.37-4.39,19.62,19.62,0,0,0-3.07-3.4,20.69,20.69,0,0,0-7.17-4.14,30.41,30.41,0,0,0-9.14-1.49,45.45,45.45,0,0,0-8,.42A29.68,29.68,0,0,0,96.2,4.5a23.74,23.74,0,0,0-7.36,5.18c-.46.48-.9,1-1.33,1.52l0,.09a3.32,3.32,0,0,0,0,2.13,2.71,2.71,0,0,0,3,1.07l.27-.13a3.25,3.25,0,0,1,.7-.42c.4-.46.81-.9,1.25-1.32A21,21,0,0,1,97,9.75a27,27,0,0,1,7-2.18,44.8,44.8,0,0,1,9.54-.39c.9.06,1.8.15,2.69.28a23.27,23.27,0,0,1,6.08,1.88,18.89,18.89,0,0,1,3.76,2.58,17.08,17.08,0,0,1,2.36,2.77,21.37,21.37,0,0,1,1.8,3.69,30.66,30.66,0,0,1,1.41,6.34,90,90,0,0,1,.14,11.73c-.06,2.18.91,2.26,2.07,2.2s2.26-.09,2.35-2.2A86.33,86.33,0,0,0,136.15,25.66Z" transform="translate(-26.76 -1.86)" style="fill:#a68f7c"/></g><text transform="translate(0.09 37.62) scale(1.07 1)" style="font-size:41.809391021728516px;font-family:GruenewaldVA-Regular, Gruenewald VA">dolope</text></svg>