<svg height="512" viewBox="0 0 24 24" width="512" xmlns="http://www.w3.org/2000/svg"><g id="Eye"><path d="m21.9375 11.6514a10.53 10.53 0 0 0 -9.9375-6.6514 10.53 10.53 0 0 0 -9.9375 6.6514 1.0072 1.0072 0 0 0 0 .6972 10.53 10.53 0 0 0 9.9375 6.6514 10.53 10.53 0 0 0 9.9375-6.6514 1.0072 1.0072 0 0 0 0-.6972zm-9.9375 5.3486a8.5588 8.5588 0 0 1 -7.9229-5 8.5588 8.5588 0 0 1 7.9229-5 8.5588 8.5588 0 0 1 7.9229 5 8.5588 8.5588 0 0 1 -7.9229 5z"/><path d="m12 8a4 4 0 1 0 4 4 4.0042 4.0042 0 0 0 -4-4zm0 6a2 2 0 1 1 2-2 2.0023 2.0023 0 0 1 -2 2z"/></g></svg>