<svg id="Layer_1" enable-background="new 0 0 73 73" height="512" viewBox="0 0 73 73" width="512" xmlns="http://www.w3.org/2000/svg"><g id="_x37_1"><path d="m67.5601578 15.8950357-4.1010704 2.0341787c-.7069778.3497696-.457798 1.421875.3334961 1.421875.3145256 0 .1234131-.0056667 4.4335899-2.1123047.3710938-.1835938.5229492-.6337891.3388672-1.0048828-.1835938-.3720693-.6333008-.5214833-1.0048828-.3388662z"/><path d="m37.4151421 12.6098795c-13.0063133-1.8079481-24.6030426 9.6383352-25.2714844 22.7548828-.6820736 13.3693962 9.6158628 25.6548042 22.8242188 25.2080078 15.0317383-.5068359 24.1958008-8.7988281 25.1420898-22.75.8452148-12.4560556-8.9116211-23.2949219-22.6948242-25.2128906zm21.2296142 24.3652334h-1.6734619c-.4140625 0-.75.3359375-.75.75s.3359375.75.75.75h1.5616455c-.5258179 5.6797485-2.5485229 10.3161011-5.8803101 13.7451172.1073608-.2698364.0527344-.5891724-.1657104-.8076172l-.7109375-.7109375c-.2929688-.2929688-.7675781-.2929688-1.0605469 0s-.2929688.7675781 0 1.0605469l.7109375.7109375c.2050667.2050667.5182228.2811928.8082275.1655884-3.515686 3.402771-8.3796997 5.5401001-14.40979 6.215271v-2.0791016c0-.4140625-.3359375-.75-.75-.75s-.75.3359375-.75.75c.0103455 1.328373-.0188179 1.937458.0229492 2.201416-.475647.0337524-.9417725.0799561-1.4306641.0964355-4.7832661.1870728-9.3910542-1.4902954-13.1631489-4.6896973.4860611-.0537453.4848499-.3231735 2.1216431-1.876709.2929688-.2929688.2929688-.7675781 0-1.0605469s-.7675781-.2929688-1.0605469 0c-1.4749336 1.5631065-1.8662262 1.6518517-1.8869019 2.1739502-3.9897995-3.7544899-6.3843079-8.7360916-7.0930166-13.9122314h3.4413443c.4140625 0 .75-.3359375.75-.75s-.3359375-.75-.75-.75c-1.5705214.0056648-3.3393211-.0126991-3.5975943.0158691-.3782158-5.2411308 1.0918722-10.2777138 3.9215078-14.5229492.0349121.0686646.0717773.137146.1292114.1945801 2.1706467 2.0728397 2.2722664 2.5146484 2.8251953 2.5146484.1918945 0 .3837891-.0732422.5302734-.2197266.2929688-.2929688.2929688-.7675781 0-1.0605469l-2.2949219-2.2949219c-.1218262-.1218262-.2766724-.1807251-.4351807-.2012329 3.8727932-5.1749077 9.7279148-8.6458473 16.1890888-8.7034903-.0343437.2475395-.0137024 1.4919224-.0200195 2.5150747 0 .4140625.3359375.75.75.75s.75-.3359375.75-.75c-.0044823-1.0986576.0095329-2.2083855-.0115967-2.4733267 5.8625107.4243908 12.4346123 3.1876135 16.9805298 8.1499014l-1.5665894 1.5665894c-.2929688.2929688-.2929688.7675781 0 1.0605469.2929611.2929611.7675705.2929783 1.0605469 0l1.4835205-1.4835205c3.1038821 3.8698733 4.834595 8.6306154 4.6743167 13.7100832z"/><path d="m45.1949272 35.7905426c-2.6312294-.730484-5.0019379.4855499-7.3617554-.0145874-.2513428-.9058228-1.0046387-1.6237793-1.9038696-1.9026489v-13.4938965c0-.4140625-.3359375-.75-.75-.75s-.75.3359375-.75.75v13.4796142c-1.3049927.3973389-2.1576538 1.8412476-1.8642578 3.1756592.2930565 1.3342094 1.6798019 2.3067169 3.0576172 2.1005859.9959717-.1513672 1.8201904-.9077759 2.1484375-1.8382568 2.5198898.4224052 4.947197-.6352425 7.0224609-.0611572.4008789.1083984.8120117-.1240234.9233398-.5224609.1108399-.3984375-.1230468-.8125-.5219726-.9228516z"/><path d="m55.6085014 4.7133951-1.296875 5.8251953c-.1041565.4661646.2499046.9130859.7324219.9130859.34375 0 .6538086-.2373047.7314453-.5869141l1.296875-5.8251953c.090332-.4042969-.1645508-.8056641-.5688477-.8955078-.4091796-.086914-.8046874.1650391-.8950195.569336z"/><path d="m64.3790054 8.5698404c-.3046875-.2802734-.7797813-.2578125-1.0595665.0478516l-4.4086914 4.8339844c-.4399605.481492-.0932007 1.2548828.5541992 1.2548828.6237984 0 .5973778-.4205437 4.9628868-5.0771484.2792969-.3066407.2573243-.7812501-.0488281-1.0595704z"/><path d="m60.3923759 18.4835358c.4589844.6479492.8826294 1.3223877 1.2789917 2.0151978-10.3567848-16.4977828-31.9453105-18.5594279-45.7579355-6.2736808-6.0460815 4.7003775-10.4663696 11.4808951-11.3365478 18.9718619-.6756592 5.8163452.1948242 12.4277954 2.7352905 17.7034302 13.0437956 27.0871429 53.9389343 23.0827942 58.5775108-8.8128052.6729813-3.683445.7015457-7.3488312-.083374-11.2553101-.7808828-4.6433716-2.5355177-8.9797363-5.4139357-12.3486938zm-4.9840698 39.4564209c-5.7036133 5.1503906-13.0649414 7.7724609-20.7460938 7.3798828-15.8432636-.8076172-28.0751962-14.3544922-27.267579-30.1972656 1.262105-24.7576427 32.3633423-36.8189087 49.6103516-18.2607422 11.1589098 12.007164 10.323102 30.3145027-1.5966788 41.078125z"/></g></svg>