<svg fill="none" height="512" viewBox="0 0 24 24" width="512" xmlns="http://www.w3.org/2000/svg"><g clip-rule="evenodd" fill="rgb(0,0,0)" fill-rule="evenodd"><path d="m7 7.75c-.69036 0-1.25.55964-1.25 1.25s.55964 1.25 1.25 1.25 1.25-.55964 1.25-1.25-.55964-1.25-1.25-1.25zm-2.75 1.25c0-1.51878 1.23122-2.75 2.75-2.75s2.75 1.23122 2.75 2.75c0 1.5188-1.23122 2.75-2.75 2.75s-2.75-1.2312-2.75-2.75z"/><path d="m10.1456 15.6047c-1.24979 1.3995-2.55322 3.3137-3.93127 5.7631-.20311.361-.66041.489-1.02141.2859-.361-.2032-.48899-.6604-.28589-1.0214 1.40695-2.5007 2.77102-4.5165 4.11971-6.0267 1.34526-1.5065 2.71176-2.5512 4.13226-3.0431 1.4478-.5014 2.8934-.4075 4.3187.2569 1.4003.6527 2.757 1.8434 4.1044 3.4967.2616.3211.2135.7936-.1076 1.0552-.3211.2617-.7935.2135-1.0552-.1076-1.2726-1.5616-2.4597-2.5647-3.5753-3.0848-1.0906-.5083-2.1332-.5664-3.1941-.199-1.0883.3769-2.2512 1.2216-3.5043 2.6248z"/><path d="m1.64124 3.64118c.89082-.89082 2.09901-1.39118 3.35876-1.39118h9.35c.4142 0 .75.33579.75.75s-.3358.75-.75.75h-9.35c-.86198 0-1.68863.34237-2.2981.95184-.60948.60948-.9519 1.43619-.9519 2.29816v10c0 .8619.3424 1.6885.9519 2.298.60951.6096 1.43617.952 2.2981.952h12c.8619 0 1.6886-.3424 2.2981-.952.6095-.6095.9519-1.4361.9519-2.298v-8c0-.41421.3358-.75.75-.75s.75.33579.75.75v8c0 1.2598-.5004 2.4679-1.3912 3.3587s-2.099 1.3913-3.3588 1.3913h-12c-1.25981 0-2.46798-.5005-3.35876-1.3913-.890791-.8908-1.39124-2.0989-1.39124-3.3587v-10c0-1.25976.500432-2.46801 1.39124-3.35882z"/><path d="m21.8076 1.73833c-.1223-.11871-.2869-.18397-.4576-.18137-.1705.0026-.333.07283-.4518.19525l-.0079.00821-.0001-.00007-5.09 5.08997c-.0279.02789-.0914.11511-.1601.28578-.0648.16092-.1172.35353-.1488.5472-.0244.14958-.0338.2836-.0321.39045.109.00165.2456-.00826.3974-.03355.1927-.03211.3832-.0846.5415-.14909.1682-.06854.2514-.13084.2762-.15611l.0057-.00583v.00003l5.1-5.09008c.039-.03896.0819-.07317.1277-.10227.0636-.10336.0971-.22347.0953-.34668-.0026-.17049-.0729-.33303-.1954-.45184zm-6.5303 6.31588c.0001-.00008.0021.00049.0059.00192-.0041-.00112-.006-.00184-.0059-.00192zm.1995.19464c.0019.00498.0027.00777.0025.00792-.0001.00015-.0011-.00234-.0025-.00792zm5.8504-8.1917164c.5683-.0086537 1.1168.2087064 1.5248.6045134.408.395713.6421.937283.6508 1.505683.0086.56834-.2088 1.11684-.6046 1.52483-.0572.05892-.123.10747-.1946.14438l-4.9615 4.95195c-.2248.22789-.515.38456-.778.49172-.2742.11175-.5737.19173-.861.2396-.2849.04747-.5848.06785-.8588.04428-.2303-.01981-.6155-.08292-.8968-.35594-.2885-.28-.3556-.67325-.3771-.90321-.0257-.27538-.0062-.57713.0405-.86329.0471-.28883.1266-.58996.2378-.86591.1072-.2662.2637-.55898.4908-.78608v-.00001l5.0864-5.086347c.3954-.405215.9351-.6375469 1.5013-.6461694z"/></g></svg>