<svg id="Layer_1" enable-background="new 0 0 68 68" height="512" viewBox="0 0 68 68" width="512" xmlns="http://www.w3.org/2000/svg"><g id="_x31_0"><path d="m37.1 58.4c5.8 0 11.3-3.7 13.4-9.1.3-.6-.4-1.3-1-.9-4.1 2.2-10 4.3-14.4 2.6-2.7-1.1-4.9-3.8-5.9-7.1-.8-2.9-.9-6.4-.2-10 .1-.7-.7-1.2-1.2-.7-4.5 3.8-6.2 10.3-4.2 15.8s7.5 9.4 13.5 9.4zm-10-22.4c-.9 9 2.8 14.5 7.4 16.4 4.3 1.8 9.3.3 13.6-1.7-2.3 3.7-6.6 6.2-11 6.2-5.2 0-10.3-3.6-12.1-8.5-1.5-4.1-.6-9 2.1-12.4z"/><path d="m33.1 39.8 3 2.2-.1 3.8c0 .4.3.8.8.8.4 0 .4-.2 3.5-2.3l3.5 1.3c.6.2 1.2-.3 1-.9l-1.3-3.7 2.3-3c.4-.5 0-1.2-.6-1.2h-3.7l-2.1-3.1c-.3-.5-1.1-.4-1.3.2l-1.2 3.5-3.6 1c-.6.3-.7 1.1-.2 1.4zm4.6-1c.2-.1.4-.3.5-.5l.8-2.5 1.5 2.2c.1.2.4.3.6.3h2.6l-1.6 2.1c-.2.2-.2.5-.1.7l.8 2.5-2.5-.9c-.2-.1-.5 0-.7.1l-2.1 1.5.1-2.6c0-.2-.1-.5-.3-.6l-2.1-1.5z"/><path d="m65.1 61.6c.1-.2.1-.4.1-.7l-.2-45.9c0-2.2-1.8-4-4-4h-3c-.2-1.1-.6-2.2-1.3-3-1.3-1.9-3.6-2.6-5.4-1.9-1.7.7-3 2.7-3.1 4.8h-6.4c-.2-1.3-.6-2.5-1.3-3.4-1.3-1.9-3.6-2.6-5.4-1.9-1.8.8-3.1 3-3.1 5.2h-6.3c-.2-1.4-.6-2.7-1.4-3.7-1.3-1.9-3.6-2.6-5.4-1.9-1.9.8-3.2 3.1-3.1 5.5h-1.9c-3.8 0-5.6 3.9-6.8 7.5-2.2 6.2-3.1 29-3.1 35.6 0 1.3 0 2.7.6 3.9.8 1.5 4.4 1.6 4.8 1.5v2.1c0 1.6 1.7 1.7 3.2 2 1.9 1 4.7 1.6 6.3 1.8 13 2.1 25.4.9 47-.2.5 0 .8-.6.6-1-.7-.7-1.1-1.4-1.4-2.3zm-13.2-54c1.2-.5 2.7.1 3.7 1.3.4.6.7 1.3.9 2.1h-6.8c.1-1.5 1-3 2.2-3.4zm-16.3-.6c1.2-.5 2.7.1 3.7 1.3.5.7.8 1.6 1 2.6h-6.9c0-1.7.9-3.4 2.2-3.9zm-18.4 3.7c-.1-1.7.9-3.5 2.2-4 1.2-.5 2.7 0 3.6 1.3.5.7.9 1.7 1.1 2.8l-6.9-.1c0 .1 0 .1 0 0zm-3.5 1.6 10.4.1c-.1 2-.9 3.7-2.1 4.9-.3-.1-.6-.2-.9-.2-.9.1-1.5 1-1.4 2.1.1 1 .9 1.8 1.8 1.7s1.5-1 1.4-2.1c0-.1 0-.2-.1-.3 1.5-1.5 2.6-3.7 2.7-6.1l14.7.1c0 2.1-.9 4-2.2 5.3-.3-.2-.6-.3-1-.2-.9.1-1.5 1-1.4 2.1.1 1 .9 1.8 1.8 1.7s1.6-1 1.3-2.2c1.7-1.5 2.8-3.9 2.9-6.5l14.8.1c.1 2.2-.7 4.1-2 5.5-.3-.2-.6-.3-1-.3-.9.1-1.5 1-1.4 2.1.1 1 .9 1.8 1.8 1.7.8-.1 1.5-1 1.3-2.1 1.7-1.6 2.8-4.1 2.7-6.8h2.8c1.4 0 2.5 1.1 2.5 2.5v10.3c-18.5 0-35.2-1-52.9 0v-10.4c.5-1.7 1.8-3 3.5-3zm-8 44.8c-.5-.9-.4-2.2-.4-3.2 0-6.4 1-29.1 3.1-35.2.3-.7.5-1.5.8-2.3v4c-.4 4.1-2.1 36-1.8 37.2-.8.1-1.5-.1-1.7-.5zm5 4.3v-34.5c17.7-1 34.3 0 52.9 0l.1 34c0 .5-.5.8-.9.8-18.8 2.6-34.8 3.6-51.7-.1-.3-.1-.4-.2-.4-.2z"/><path d="m7.4 11.9c.3-.3.2-.8-.1-1.1-1.4-1.1-2.9-2.1-4.5-2.9-.4-.2-.8 0-1 .3-.2.4 0 .8.3 1 1.5.8 2.9 1.7 4.2 2.8.3.2.8.2 1.1-.1z"/><path d="m6.1 3.3c-.3.2-.4.7-.2 1l2.8 4.4c.5.8 1.8 0 1.3-.8l-2.9-4.4c-.2-.3-.6-.4-1-.2z"/><path d="m11.8 2.3-.3 3.8c0 .4.3.8.7.8s.8-.3.8-.7l.3-3.8c0-.4-.3-.8-.7-.8s-.7.3-.8.7z"/></g></svg>